<?xml version="1.0" encoding="UTF-8"?>
<svg t="1590070187113" class="icon" viewBox="0 0 1024 1024" version="1.1" xmlns="http://www.w3.org/2000/svg" p-id="1524"
     width="200" height="200">
    <path d="M85.333333 426.666667V341.333333a85.333333 85.333333 0 0 1 85.333334-85.333333h682.666666a85.333333 85.333333 0 0 1 85.333334 85.333333v85.333334a85.333333 85.333333 0 1 0 0 170.666666v85.333334a85.333333 85.333333 0 0 1-85.333334 85.333333H170.666667a85.333333 85.333333 0 0 1-85.333334-85.333333v-85.333334a85.333333 85.333333 0 1 0 0-170.666666z m128-85.333334v341.333334h597.333334V341.333333H213.333333z m85.333334 85.333334h426.666666v170.666666H298.666667v-170.666666z"
          fill="#8a8a8a" p-id="1525"></path>
</svg>